<?xml version="1.0" standalone="no"?>
<!DOCTYPE svg PUBLIC "-//W3C//DTD SVG 20010904//EN"
 "http://www.w3.org/TR/2001/REC-SVG-20010904/DTD/svg10.dtd">
<svg version="1.0" xmlns="http://www.w3.org/2000/svg"
 width="300.000000pt" height="300.000000pt" viewBox="0 0 300.000000 300.000000"
 preserveAspectRatio="xMidYMid meet">
<metadata>
Created by potrace 1.14, written by Peter Selinger 2001-2017
</metadata>
<g transform="translate(0.000000,300.000000) scale(0.100000,-0.100000)"
fill="#000000" stroke="none">
<path d="M1138 2873 c113 -145 218 -404 248 -613 19 -130 2 -355 -42 -560 -15
-68 -22 -80 -73 -135 -185 -195 -233 -397 -141 -593 56 -121 195 -229 336
-261 199 -47 437 15 614 157 247 200 354 490 230 621 -59 61 -173 81 -316 55
-95 -18 -114 -34 -105 -91 l6 -38 90 -6 c115 -8 149 -22 188 -79 23 -33 22
-117 -3 -187 -75 -215 -284 -377 -498 -388 -169 -8 -306 64 -369 193 -24 50
-27 69 -27 147 0 68 6 106 23 153 44 123 86 177 318 412 122 124 253 264 291
311 166 207 274 408 311 577 5 23 7 42 5 42 -2 0 -22 -36 -44 -79 -58 -117
-141 -240 -223 -334 -128 -146 -289 -297 -412 -388 -66 -49 -139 -105 -162
-125 -24 -19 -43 -34 -43 -32 0 3 24 52 53 110 77 151 106 267 108 434 2 265
-125 532 -332 697 -59 47 -68 47 -31 0z"/>
<path d="M1708 2573 c-117 -80 -135 -307 -30 -381 36 -26 62 -28 105 -7 114
54 144 294 49 378 -30 27 -91 32 -124 10z"/>
<path d="M1769 1749 c-10 -20 -9 -43 5 -124 2 -11 7 -47 11 -80 l7 -60 -89
-58 c-101 -67 -145 -105 -203 -179 -48 -60 -85 -128 -70 -128 5 0 10 5 10 11
0 5 33 42 73 82 68 67 170 134 259 171 l36 16 7 -78 c4 -42 9 -86 12 -97 2
-11 6 -101 9 -200 4 -165 5 -180 21 -177 36 7 42 30 38 141 -8 188 -21 307
-81 734 -7 51 -25 62 -45 26z"/>
<path d="M1839 684 c-29 -12 -40 -25 -54 -62 -28 -73 -82 -152 -104 -152 -11
0 -23 -5 -26 -10 -4 -6 -11 -8 -16 -5 -5 3 -6 -1 -2 -11 5 -15 7 -15 15 0 5 9
14 16 20 16 6 0 3 -9 -7 -20 l-18 -20 -26 24 c-37 33 -62 44 -94 39 -17 -2
-26 0 -23 6 4 5 2 13 -4 16 -6 4 -10 3 -9 -2 3 -20 -2 -34 -11 -28 -5 3 -10 1
-10 -5 0 -6 -4 -9 -9 -5 -5 3 -12 -3 -15 -13 -3 -10 -16 -18 -28 -19 l-23 -2
23 17 23 18 -22 1 c-12 1 -19 -1 -15 -4 3 -3 1 -12 -5 -19 -13 -16 -2 -37 13
-28 7 4 8 2 4 -5 -5 -8 -14 -6 -32 8 -14 11 -24 22 -22 24 2 2 -3 11 -10 20
-8 9 -10 22 -6 29 6 9 3 9 -10 -1 -13 -11 -14 -16 -5 -22 18 -10 20 -37 4 -43
-9 -3 -12 2 -10 15 4 22 -10 26 -19 4 -3 -8 1 -21 9 -29 20 -20 19 -32 -1 -15
-11 9 -17 10 -23 1 -3 -6 -15 -9 -26 -8 -11 2 -28 -6 -39 -18 -18 -21 -18 -21
-2 7 9 15 12 27 7 27 -5 0 -13 -5 -16 -10 -5 -8 -11 -8 -19 -1 -13 11 -26 5
-26 -11 0 -5 6 -6 13 -2 6 4 8 3 4 -1 -12 -14 -36 -14 -31 -1 3 8 -3 12 -17
11 -13 -1 -25 -7 -27 -13 -2 -7 -8 -12 -14 -12 -7 0 -7 4 1 13 7 9 7 17 0 24
-7 7 1 10 25 8 19 -1 33 2 30 6 -2 5 5 6 16 4 13 -3 18 0 14 7 -4 6 -3 8 2 5
6 -3 16 -1 24 4 13 9 13 10 0 8 -27 -3 -41 1 -36 9 3 5 -1 9 -9 9 -8 0 -15 -4
-15 -9 0 -4 5 -8 10 -8 19 0 10 -16 -9 -17 -14 -1 -18 3 -14 15 4 15 3 15 -6
2 -6 -8 -11 -11 -11 -5 0 5 -6 3 -12 -3 -10 -10 -16 -8 -31 10 l-18 23 12 -25
c18 -34 21 -60 8 -60 -6 0 -8 -7 -5 -16 4 -10 2 -13 -6 -8 -7 4 -22 9 -34 10
-17 2 -21 -2 -18 -19 l5 -22 -10 21 c-13 31 -28 37 -39 18 -6 -11 -11 -13 -16
-5 -4 6 -2 11 5 11 7 0 9 3 6 6 -4 4 -17 0 -30 -9 -24 -15 -24 -15 -22 11 2
15 4 33 6 41 2 7 -4 15 -14 16 -13 2 -15 0 -9 -8 13 -16 11 -48 -2 -44 -6 2
-10 13 -8 23 2 14 1 16 -6 5 -5 -7 -12 -9 -14 -5 -3 5 -3 3 -2 -4 3 -8 -4 -10
-21 -6 -26 6 -31 -1 -16 -25 6 -9 11 -10 15 -2 4 6 2 11 -5 11 -7 0 -10 2 -7
5 3 3 13 2 22 -1 14 -5 15 -9 4 -15 -9 -6 -9 -9 -1 -9 6 0 15 5 18 10 4 6 11
8 16 4 5 -3 7 -9 4 -14 -3 -5 4 -14 15 -20 20 -11 28 -40 10 -40 -5 0 -7 8 -3
18 3 9 3 14 -2 10 -4 -4 -14 0 -22 10 -13 16 -14 15 -8 -5 4 -14 2 -23 -4 -23
-6 0 -10 3 -10 8 3 17 -2 32 -9 32 -5 0 -8 -9 -7 -21 1 -21 23 -41 37 -33 4 2
12 -5 18 -16 7 -13 7 -20 0 -20 -5 0 -10 7 -10 17 0 9 -3 13 -6 10 -4 -4 -20
1 -35 10 -22 13 -32 14 -40 6 -9 -9 -9 -16 -1 -26 9 -10 8 -17 -1 -26 -10 -11
-7 -12 13 -7 14 3 19 3 13 0 -18 -8 -16 -21 2 -21 8 0 17 9 21 19 6 19 24 25
24 8 0 -5 -4 -10 -10 -10 -5 0 -10 -8 -10 -17 0 -14 4 -12 25 7 14 13 26 22
26 19 1 -2 2 -18 3 -36 2 -25 -2 -31 -16 -30 -10 1 -18 6 -18 12 0 7 -6 12
-12 13 -7 0 -23 3 -35 6 -13 2 -25 1 -28 -5 -4 -5 -12 -9 -18 -9 -7 0 -4 6 5
14 17 12 15 26 -4 26 -5 0 -6 -6 -2 -12 6 -9 3 -9 -9 0 -9 8 -20 11 -25 8 -6
-3 -16 2 -23 11 -8 9 -9 14 -4 11 6 -4 11 2 11 12 0 10 -5 16 -10 13 -5 -4 -6
-1 -1 7 6 9 4 11 -6 5 -12 -7 -12 -6 -1 7 8 9 21 14 30 12 15 -5 16 -4 1 8 -9
7 -14 19 -12 26 5 13 24 17 22 5 -3 -21 3 -29 22 -30 17 -2 18 1 9 12 -7 8
-17 12 -23 8 -6 -3 -7 -1 -3 6 6 9 11 9 22 0 9 -7 14 -8 14 -1 0 6 -3 12 -7
15 -5 2 -1 2 7 0 12 -3 12 -2 3 8 -10 10 -15 9 -28 -1 -9 -8 -15 -8 -15 -2 0
6 5 14 10 17 6 3 10 11 10 16 0 6 -11 -3 -25 -18 -13 -15 -25 -23 -25 -17 0 6
7 17 15 24 8 7 15 16 15 21 0 4 -10 -2 -23 -14 -13 -12 -22 -25 -20 -29 5 -10
-14 -10 -20 0 -2 4 -3 2 -1 -4 1 -7 -7 -12 -19 -12 -60 0 -88 -22 -69 -52 8
-13 8 -20 2 -20 -6 0 -15 10 -21 23 l-10 22 5 -23 c3 -16 -3 -27 -20 -38 -13
-9 -24 -20 -24 -26 0 -5 12 2 27 16 15 14 31 22 35 20 5 -3 1 -12 -8 -19 -11
-8 -15 -19 -10 -30 6 -17 7 -17 26 0 11 10 23 15 27 12 4 -4 -2 -14 -13 -23
-18 -14 -17 -14 6 -3 14 7 28 17 32 23 4 6 10 7 14 3 10 -10 -26 -48 -39 -40
-6 4 -7 1 -3 -6 6 -9 12 -9 25 3 13 12 20 13 29 4 9 -9 12 -9 12 0 0 7 -4 12
-10 12 -5 0 -7 7 -3 16 5 14 8 12 19 -7 7 -13 10 -27 8 -31 -3 -5 0 -8 6 -8 7
0 9 8 4 22 -6 21 -5 21 10 9 9 -8 15 -20 12 -28 -3 -8 -1 -11 4 -8 6 3 10 13
10 22 0 12 3 13 15 3 8 -6 19 -9 26 -5 8 5 9 1 4 -15 -5 -15 -4 -20 4 -16 6 4
11 14 11 22 0 18 34 18 50 -1 7 -8 16 -13 20 -10 5 3 10 -1 12 -7 3 -7 13 -13
24 -13 12 0 18 -6 16 -15 -3 -12 -1 -13 10 -2 11 11 11 14 0 21 -11 7 -10 10
3 15 23 9 24 8 20 -12 -2 -12 3 -18 16 -18 10 0 16 2 14 5 -3 2 3 10 13 18 9
8 11 11 3 7 -8 -4 -12 -3 -8 3 3 5 0 10 -7 10 -8 0 -12 -6 -9 -14 3 -7 1 -13
-4 -13 -5 0 -9 9 -10 20 -1 11 4 20 10 19 28 -3 39 2 33 17 -3 9 -2 12 5 9 5
-4 7 -16 4 -28 -6 -21 -6 -22 9 -3 9 11 16 15 16 9 0 -7 -5 -15 -10 -18 -6 -4
-8 -10 -5 -15 3 -5 0 -12 -6 -16 -8 -5 -9 -3 -4 7 6 11 5 12 -5 2 -18 -16 -5
-29 13 -14 11 8 18 7 30 -7 8 -9 16 -21 15 -25 0 -5 3 -11 5 -14 3 -3 4 2 3
11 -1 8 -5 19 -9 22 -4 4 -7 12 -7 18 1 6 10 0 20 -13 11 -13 20 -19 20 -14 0
5 -5 14 -12 21 -18 18 3 14 23 -4 10 -9 15 -23 13 -32 -3 -10 4 -1 14 18 11
19 24 35 29 35 4 0 7 6 7 12 -1 7 2 11 6 8 5 -3 11 1 14 7 3 7 3 2 -1 -12 -5
-22 -4 -23 11 -11 9 7 16 10 16 5 0 -5 5 -2 10 6 6 9 10 10 10 3 0 -6 8 -10
18 -9 9 2 23 -3 31 -11 11 -12 10 -14 -5 -11 -11 2 -22 7 -25 12 -4 4 -10 3
-13 -3 -4 -6 -2 -11 4 -11 7 0 8 -6 0 -19 -7 -14 -7 -22 0 -26 6 -4 10 -3 9 2
-4 21 3 29 24 30 21 2 21 1 4 -12 -10 -7 -14 -16 -9 -19 10 -6 27 21 24 36 -1
5 2 8 8 8 5 0 8 6 6 12 -1 7 -1 10 1 6 3 -5 9 -8 14 -8 6 0 8 4 4 9 -6 10 33
6 43 -4 3 -3 0 -17 -7 -32 -10 -26 -10 -27 4 -9 14 18 20 15 16 -7 -1 -5 3 -6
9 -2 6 3 8 11 5 16 -4 5 -1 9 4 9 6 0 11 -4 11 -9 0 -6 9 -9 20 -8 11 1 20 5
20 10 0 5 -7 6 -16 3 -10 -4 -13 -2 -8 6 4 7 3 8 -4 4 -7 -4 -12 -2 -12 5 0 8
-4 8 -15 -1 -13 -11 -14 -10 -9 4 4 10 13 15 21 12 8 -3 24 -1 36 5 21 10 21
10 3 -5 -18 -14 -18 -16 -3 -16 10 0 20 7 23 15 8 21 21 19 29 -5 4 -12 11
-17 18 -14 7 4 8 3 4 -1 -13 -15 -36 -14 -30 1 3 8 0 14 -7 14 -6 0 -8 -5 -4
-12 4 -6 3 -8 -2 -5 -6 3 -11 -4 -11 -16 -1 -12 1 -17 5 -12 9 14 45 14 54 0
4 -5 6 1 5 15 0 14 -8 31 -17 38 -13 11 -11 11 8 2 25 -12 46 -5 36 12 -4 7
-2 8 5 4 6 -4 9 -12 5 -17 -3 -6 2 -9 11 -7 10 2 20 -4 22 -12 4 -13 3 -13 -7
0 -10 13 -11 13 -7 0 2 -8 8 -15 13 -16 5 0 16 -4 24 -7 8 -4 32 -5 53 -4 26
2 41 -1 47 -12 5 -9 10 -11 10 -4 0 6 -5 15 -10 18 -6 4 -8 11 -5 16 8 12 26
12 23 0 -2 -5 0 -9 5 -10 21 -3 27 1 27 17 0 13 -2 14 -9 3 -6 -9 -11 -10 -15
-2 -4 6 -2 11 3 11 6 0 11 5 11 10 0 7 -8 6 -22 -2 -30 -16 -48 -19 -48 -7 0
6 -4 7 -10 4 -5 -3 -10 -11 -10 -16 0 -6 4 -8 9 -4 5 3 12 1 15 -4 3 -5 -12
-9 -34 -9 -25 -1 -38 3 -34 9 3 6 12 8 20 5 14 -5 17 2 15 39 0 16 1 17 7 4 4
-9 15 -15 25 -13 9 1 17 -2 17 -7 0 -5 11 -2 25 7 23 15 25 15 31 0 3 -9 10
-13 15 -10 5 3 7 9 4 14 -3 5 0 12 6 16 8 4 9 3 5 -4 -4 -7 -1 -12 6 -12 10 0
10 -2 -1 -9 -8 -5 -16 -17 -17 -25 -1 -9 2 -14 7 -10 5 3 7 10 4 15 -4 5 1 9
10 9 9 0 13 -4 10 -10 -3 -5 -1 -10 5 -10 6 0 9 -4 6 -8 -2 -4 4 -8 14 -8 12
0 16 5 12 16 -3 8 -2 12 3 8 4 -4 16 -3 26 2 12 7 20 7 24 0 5 -8 11 -8 20 0
14 12 27 -1 31 -28 2 -8 5 -17 8 -20 4 -3 5 4 3 16 -2 12 -6 25 -10 28 -16 16
-5 26 11 11 10 -10 25 -17 33 -16 8 0 4 4 -8 9 -22 9 -22 10 -5 39 9 17 19 26
20 21 2 -6 8 -8 13 -5 5 4 6 -2 2 -11 -5 -13 -3 -15 8 -9 8 4 11 5 7 0 -4 -4
-2 -17 4 -29 7 -11 11 -25 10 -29 -1 -5 2 -5 8 -2 6 4 9 10 6 13 -3 3 -1 11 5
19 9 10 15 11 26 2 11 -10 12 -8 6 7 -5 15 -4 17 8 8 20 -16 52 -14 38 2 -7 8
-7 14 1 19 5 3 10 2 10 -3 0 -5 11 -9 25 -9 14 0 25 4 25 9 0 5 -5 6 -11 2 -7
-4 -10 -1 -7 6 2 7 12 14 21 16 13 2 16 -3 12 -14 -3 -11 3 -22 18 -31 22 -14
22 -13 4 7 -13 14 -15 22 -7 27 9 6 9 10 -1 17 -11 8 -11 9 1 5 8 -2 14 -12
14 -21 -2 -12 1 -14 10 -6 7 5 16 7 19 3 12 -11 36 18 30 35 -6 15 -5 15 10 3
16 -12 17 -12 10 5 -6 17 -5 17 10 6 8 -8 13 -21 11 -30 -4 -13 -3 -12 7 2 9
15 9 20 -5 28 -9 5 -16 14 -16 20 0 7 4 7 13 0 10 -8 16 -5 27 11 8 12 13 28
11 36 -1 7 2 10 8 6 6 -3 11 -1 11 5 0 7 -6 10 -12 7 -7 -2 -12 -12 -12 -21 1
-9 -3 -15 -10 -13 -6 3 -10 10 -8 16 1 7 -2 10 -8 6 -5 -3 -10 -2 -10 4 0 5 8
12 18 14 15 4 15 5 0 6 -26 2 -32 -18 -12 -40 9 -10 14 -22 10 -26 -4 -5 -12
-1 -16 7 -27 43 -28 44 -44 31 -19 -16 -22 -1 -4 17 10 10 10 15 -2 22 -8 5
-17 7 -21 4 -4 -2 -10 0 -14 6 -3 5 -11 10 -16 10 -6 0 -8 -4 -5 -9 3 -5 -1
-14 -9 -21 -13 -11 -15 -9 -13 11 2 13 8 27 13 31 6 5 5 8 -3 8 -7 0 -15 -7
-18 -15 -4 -8 -10 -12 -16 -9 -5 3 -4 12 4 22 11 13 11 14 -2 7 -22 -14 -42
-13 -69 3 -13 8 -21 9 -17 4 3 -6 0 -12 -6 -15 -10 -3 -10 -8 1 -18 8 -8 11
-9 7 -2 -12 21 10 22 23 1 11 -18 11 -20 -3 -15 -8 3 -18 2 -21 -2 -8 -14 21
-20 35 -8 10 9 11 9 6 0 -4 -8 0 -11 14 -8 11 2 20 -1 20 -7 0 -5 7 -7 16 -4
10 4 13 2 8 -7 -5 -7 0 -5 11 3 15 12 17 12 10 1 -6 -10 -4 -12 5 -6 9 6 11 4
5 -5 -6 -9 -4 -11 5 -5 9 6 11 4 5 -6 -7 -11 -5 -11 11 1 12 9 10 4 -6 -14
-14 -16 -19 -26 -11 -21 10 5 12 4 7 -4 -4 -6 -13 -8 -19 -4 -7 4 -6 0 2 -10
11 -14 2 -25 -12 -14 -2 1 -11 -4 -20 -12 -14 -11 -17 -11 -17 0 -1 8 -6 4
-13 -9 -7 -12 -16 -19 -20 -15 -11 10 -38 13 -32 3 3 -5 -3 -7 -14 -5 -14 2
-18 -1 -14 -11 3 -8 1 -14 -5 -14 -6 0 -9 7 -8 15 1 9 6 15 11 14 11 -1 25 23
18 34 -3 5 -9 3 -14 -4 -5 -8 -9 -9 -9 -3 0 6 7 17 15 24 18 15 20 31 4 28 -6
-2 -14 4 -16 12 -4 13 -3 13 6 0 6 -8 11 -11 11 -5 0 5 5 4 12 -3 8 -8 8 -15
-1 -26 -7 -9 -8 -17 -2 -20 5 -3 12 0 15 6 3 7 3 3 0 -10 l-6 -23 37 21 c31
17 40 19 53 8 13 -11 15 -10 9 5 -4 10 -7 21 -7 23 0 3 -4 3 -9 -1 -5 -3 -12
-1 -16 5 -10 16 -23 12 -21 -6 2 -23 -20 -29 -28 -8 -5 14 -4 15 9 4 11 -9 15
-9 15 -1 0 7 -13 20 -30 29 -16 9 -30 21 -30 25 0 5 5 5 10 2 6 -3 10 -2 10 2
0 5 -9 14 -21 21 -19 12 -20 11 -14 -9 l7 -22 -23 22 c-13 12 -29 19 -36 17
-6 -3 -13 0 -15 6 -5 15 -45 20 -53 8 -4 -6 -11 -7 -17 -4 -8 5 -9 1 -5 -10 4
-10 3 -15 -3 -11 -6 3 -10 1 -10 -6 0 -7 -3 -10 -6 -7 -3 4 -1 15 4 25 6 11 8
23 4 29 -10 13 -32 16 -32 4 0 -6 5 -10 10 -10 6 0 10 -5 10 -11 0 -8 -4 -8
-15 1 -15 13 -39 5 -29 -11 3 -5 10 -6 16 -3 7 4 8 2 4 -5 -9 -13 -51 12 -51
31 0 6 -6 13 -14 16 -8 3 -11 0 -7 -6 3 -6 1 -14 -5 -18 -7 -4 -9 -3 -5 4 3 6
-4 18 -16 26 -26 19 -39 20 -35 5 1 -6 -8 -15 -21 -20 -15 -6 -21 -5 -17 1 3
6 13 10 22 10 13 0 13 3 2 18 -7 9 -9 14 -4 9 10 -8 68 155 79 221 3 23 5 42
4 41 -2 0 -19 -7 -39 -15z m-715 -252 c3 -5 -1 -9 -9 -9 -8 0 -12 4 -9 9 3 4
7 8 9 8 2 0 6 -4 9 -8z m261 -41 c-4 -3 -10 1 -15 9 -9 14 -14 7 -11 -13 1 -5
-3 -6 -8 -3 -5 3 -8 14 -6 24 2 9 4 19 4 21 1 2 10 -4 21 -14 11 -10 18 -21
15 -24z m465 -2 c0 -6 -4 -7 -10 -4 -5 3 -10 11 -10 16 0 6 5 7 10 4 6 -3 10
-11 10 -16z m379 -8 c5 -7 14 -11 20 -7 7 5 9 1 5 -9 -5 -11 -10 -13 -19 -5
-6 5 -14 8 -17 5 -3 -3 -12 3 -22 14 -16 17 -16 18 4 17 11 0 25 -7 29 -15z
m-919 -1 c0 -5 -5 -10 -11 -10 -5 0 -7 5 -4 10 3 6 8 10 11 10 2 0 4 -4 4 -10z
m513 3 c3 -5 -8 -8 -25 -9 -20 -1 -25 2 -16 7 16 11 35 11 41 2z m-1086 -32
c-2 -10 -9 -26 -15 -34 -10 -11 -10 -17 -2 -22 6 -4 9 -13 6 -20 -6 -16 29
-49 43 -41 5 4 12 3 15 -2 2 -4 -4 -8 -14 -9 -11 -1 -22 3 -25 8 -4 5 -11 6
-17 3 -7 -4 -8 -2 -4 4 6 10 -4 16 -24 14 -3 0 -6 17 -6 39 0 30 3 38 13 34 9
-3 11 0 7 7 -5 7 -2 8 7 3 8 -5 11 -4 7 0 -14 14 -56 14 -69 -1 -6 -7 -16 -11
-23 -7 -6 4 -5 -1 2 -10 8 -9 11 -20 8 -25 -3 -6 1 -15 9 -22 14 -11 19 -7 16
13 0 4 4 7 9 7 15 0 12 -16 -5 -30 -8 -6 -19 -9 -25 -5 -6 4 -20 -1 -31 -11
-18 -16 -19 -16 -19 0 0 9 4 15 9 12 12 -8 31 40 20 51 -12 12 -3 39 14 41 7
1 27 3 45 5 17 2 35 7 39 10 11 11 13 8 10 -12z m216 5 c4 -10 1 -13 -9 -9
-15 6 -19 23 -5 23 5 0 11 -7 14 -14z m422 4 c-3 -5 -12 -10 -18 -10 -7 0 -6
4 3 10 19 12 23 12 15 0z m665 0 c0 -5 -2 -10 -4 -10 -3 0 -8 5 -11 10 -3 6
-1 10 4 10 6 0 11 -4 11 -10z m17 -12 c-3 -8 -6 -5 -6 6 -1 11 2 17 5 13 3 -3
4 -12 1 -19z m279 10 c3 -4 -3 -11 -14 -17 -15 -8 -23 -7 -31 3 -6 7 -8 16 -5
19 8 7 41 4 50 -5z m-1333 -32 c3 3 4 -1 3 -10 -1 -8 -6 -19 -10 -23 -4 -4 -6
-3 -5 2 2 6 -2 21 -9 35 -12 22 -11 23 1 8 8 -10 17 -15 20 -12z m52 14 c-3
-5 -12 -10 -18 -10 -7 0 -6 4 3 10 19 12 23 12 15 0z m110 -8 c-3 -3 -11 0
-18 7 -9 10 -8 11 6 5 10 -3 15 -9 12 -12z m861 -5 c1 -7 -8 -14 -20 -14 -19
-2 -19 -1 -3 8 9 6 14 16 11 22 -4 7 -3 8 1 4 5 -4 10 -13 11 -20z m74 19 c0
-2 -7 -6 -15 -10 -8 -3 -15 -1 -15 4 0 6 7 10 15 10 8 0 15 -2 15 -4z m-1414
-25 c0 -11 -4 -17 -8 -15 -8 5 -12 -11 -9 -29 1 -5 -2 -6 -7 -3 -16 10 -2 66
16 66 4 0 8 -9 8 -19z m1431 -3 c-3 -8 -6 -5 -6 6 -1 11 2 17 5 13 3 -3 4 -12
1 -19z m-163 4 c3 -5 -1 -9 -9 -9 -8 0 -12 4 -9 9 3 4 7 8 9 8 2 0 6 -4 9 -8z
m419 -32 c-5 -18 -15 -24 -35 -21 -5 0 -8 -4 -8 -10 0 -8 -4 -8 -13 0 -10 8
-14 7 -14 -3 0 -8 8 -13 18 -11 21 4 35 -10 19 -20 -16 -10 -49 13 -45 32 2
10 4 19 5 21 2 1 3 5 4 10 3 16 18 32 26 27 5 -3 12 -1 15 5 11 18 34 -8 28
-30z m-1512 -7 c2 1 1 -2 -4 -8 -5 -6 -11 -4 -17 5 -15 23 -11 37 4 18 7 -10
15 -17 17 -15z m1247 2 c-3 -3 -9 2 -12 12 -6 14 -5 15 5 6 7 -7 10 -15 7 -18z
m-1148 -10 c7 -9 8 -15 2 -15 -5 0 -12 7 -16 15 -3 8 -4 15 -2 15 2 0 9 -7 16
-15z m1050 5 c0 -5 -2 -10 -4 -10 -3 0 -8 5 -11 10 -3 6 -1 10 4 10 6 0 11 -4
11 -10z m77 3 c-9 -8 -57 -13 -57 -6 0 5 14 9 31 9 16 1 28 0 26 -3z m34 -20
c-12 -20 -14 -14 -5 12 4 9 9 14 11 11 3 -2 0 -13 -6 -23z m-1119 -18 c-9 -11
-17 -21 -18 -23 -1 -2 -4 4 -8 13 -4 11 -2 14 6 9 7 -5 9 -2 6 7 -4 10 1 15
13 15 17 0 17 -1 1 -21z m63 15 c3 -5 1 -10 -4 -10 -6 0 -11 5 -11 10 0 6 2
10 4 10 3 0 8 -4 11 -10z m41 -36 c-6 -29 20 -46 36 -23 7 10 7 7 3 -9 -6 -21
-5 -22 13 -11 12 7 18 17 16 21 -3 4 0 8 5 8 14 0 14 -3 -1 -35 -13 -29 -21
-31 -38 -10 -8 10 -23 13 -41 10 -31 -6 -38 5 -15 24 8 7 13 21 11 32 -2 10 0
19 6 19 5 0 7 -11 5 -26z m924 11 c0 -8 -2 -15 -4 -15 -2 0 -6 7 -10 15 -3 8
-1 15 4 15 6 0 10 -7 10 -15z m60 5 c-8 -5 -19 -10 -25 -10 -5 0 -3 5 5 10 8
5 20 10 25 10 6 0 3 -5 -5 -10z m-207 -15 c-3 -9 -8 -14 -10 -11 -3 3 -2 9 2
15 9 16 15 13 8 -4z m232 -15 c-1 -27 -24 -67 -26 -45 0 6 -2 20 -3 33 -2 13
4 27 13 32 9 5 16 10 16 10 1 0 0 -13 0 -30z m-1141 5 c3 -10 -5 -20 -25 -31
-23 -11 -29 -12 -23 -2 9 13 10 18 13 38 2 16 28 12 35 -5z m1024 4 c-10 -5
-18 -15 -18 -21 0 -7 6 -6 15 2 17 14 31 8 21 -9 -4 -5 -15 -8 -25 -6 -11 2
-22 -3 -26 -12 -4 -12 -9 -13 -17 -5 -8 8 -17 8 -30 1 -10 -5 -18 -7 -18 -3 0
3 -7 1 -15 -6 -12 -10 -15 -9 -15 7 0 10 -6 25 -12 33 -7 7 2 3 20 -9 31 -22
44 -17 20 7 -9 9 -9 12 0 12 7 0 12 -4 12 -9 0 -5 8 -8 18 -6 9 2 19 4 22 4 3
1 -2 6 -10 12 -13 9 -13 10 0 6 8 -2 14 -10 13 -16 -2 -6 2 -11 7 -11 6 0 10
6 10 14 0 14 14 24 35 25 6 0 2 -4 -7 -10z m-671 -21 c2 -17 0 -19 -7 -8 -5 8
-6 18 -4 22 8 12 10 10 11 -14z m854 9 c-6 -8 -7 -17 -3 -22 4 -4 1 -6 -7 -3
-8 2 -17 10 -19 18 -3 7 0 10 6 6 6 -3 13 -2 17 4 3 5 9 10 12 10 3 0 0 -6 -6
-13z m-536 -7 c3 -5 1 -10 -4 -10 -6 0 -11 5 -11 10 0 6 2 10 4 10 3 0 8 -4
11 -10z m16 -37 c-8 -15 -10 -15 -11 -2 0 17 10 32 18 25 2 -3 -1 -13 -7 -23z"/>
<path d="M706 287 c3 -10 9 -15 12 -12 3 3 0 11 -7 18 -10 9 -11 8 -5 -6z"/>
<path d="M2346 312 c-4 -4 -12 -7 -18 -7 -6 0 -12 -8 -14 -18 -2 -14 1 -16 11
-7 9 7 14 8 17 0 1 -5 9 -1 15 9 12 20 3 38 -11 23z"/>
<path d="M1086 192 c-3 -5 1 -9 9 -9 8 0 12 4 9 9 -3 4 -7 8 -9 8 -2 0 -6 -4
-9 -8z"/>
<path d="M945 210 c-3 -5 1 -10 10 -10 9 0 13 5 10 10 -3 6 -8 10 -10 10 -2 0
-7 -4 -10 -10z"/>
<path d="M1387 499 c7 -7 15 -10 18 -7 3 3 -2 9 -12 12 -14 6 -15 5 -6 -5z"/>
<path d="M1194 489 c-3 -6 -2 -15 3 -20 5 -5 9 -1 9 11 0 23 -2 24 -12 9z"/>
<path d="M1013 475 c0 -8 4 -12 9 -9 4 3 8 9 8 15 0 5 -4 9 -8 9 -5 0 -9 -7
-9 -15z"/>
<path d="M1100 468 c-10 -21 -10 -21 3 -6 8 10 18 14 22 10 5 -4 5 -1 1 6 -10
17 -14 15 -26 -10z"/>
<path d="M1286 478 c3 -4 9 -8 15 -8 5 0 9 4 9 8 0 5 -7 9 -15 9 -8 0 -12 -4
-9 -9z"/>
<path d="M1616 474 c-3 -7 3 -10 15 -7 26 7 32 19 9 19 -11 0 -22 -6 -24 -12z"/>
<path d="M1947 479 c7 -7 15 -10 18 -7 3 3 -2 9 -12 12 -14 6 -15 5 -6 -5z"/>
<path d="M2140 486 c0 -2 8 -10 18 -17 15 -13 16 -12 3 4 -13 16 -21 21 -21
13z"/>
<path d="M944 433 c-10 -21 -20 -42 -23 -48 -3 -5 7 -2 22 8 15 10 27 13 27 7
0 -6 4 -9 9 -5 5 3 13 1 16 -5 5 -8 11 -8 20 0 9 8 14 8 17 -1 3 -9 9 -9 26 0
19 10 20 14 9 38 -9 20 -13 23 -15 10 -2 -9 -8 -17 -13 -17 -6 0 -7 4 -4 10 4
6 -1 7 -11 3 -13 -5 -15 -3 -9 7 5 8 4 11 -3 6 -6 -4 -8 -14 -5 -24 6 -15 5
-15 -10 -3 -14 11 -20 11 -32 1 -18 -15 -18 -10 -5 24 15 39 3 31 -16 -11z
m51 -23 c4 -6 12 -7 18 -3 18 11 47 11 54 0 3 -6 1 -7 -5 -3 -7 4 -12 2 -12
-5 0 -8 -4 -9 -13 0 -8 6 -17 7 -23 1 -5 -5 -17 -3 -28 6 -11 8 -15 14 -9 14
7 0 15 -5 18 -10z"/>
<path d="M1236 452 c-4 -11 -16 -24 -27 -27 -10 -4 -16 -11 -13 -17 4 -6 12
-4 22 6 14 14 17 14 29 -2 12 -16 13 -15 7 3 -5 19 -5 19 9 3 9 -12 17 -14 24
-7 14 14 5 46 -14 54 -12 4 -13 3 -5 -8 7 -8 9 -17 5 -21 -4 -4 -12 3 -19 15
l-12 22 -6 -21z"/>
<path d="M1377 463 c-4 -3 -7 -11 -7 -17 0 -6 5 -5 12 2 6 6 9 14 7 17 -3 3
-9 2 -12 -2z"/>
<path d="M1825 459 c-4 -6 -5 -12 -2 -15 2 -3 7 2 10 11 7 17 1 20 -8 4z"/>
<path d="M1854 452 c-11 -11 -12 -17 -3 -28 6 -8 15 -11 21 -8 12 7 39 -16 32
-27 -10 -17 13 -9 31 11 10 11 20 18 24 16 3 -1 14 5 24 16 9 10 13 18 8 18
-6 0 -13 -5 -16 -10 -4 -6 -11 -7 -17 -4 -6 4 -5 10 3 16 11 8 11 9 -1 5 -8
-2 -14 -13 -12 -23 2 -18 2 -18 -14 1 -15 18 -16 18 -10 2 4 -13 2 -17 -6 -14
-7 2 -12 10 -10 16 1 8 -2 9 -9 5 -8 -5 -10 -2 -7 8 8 19 -19 20 -38 0z m75
-37 c13 5 13 4 4 -6 -10 -10 -16 -9 -32 5 -10 9 -22 16 -27 15 -21 -4 -26 2
-14 16 11 13 15 11 32 -11 13 -16 26 -23 37 -19z"/>
<path d="M2030 466 c0 -2 7 -7 16 -10 8 -3 12 -2 9 4 -6 10 -25 14 -25 6z"/>
<path d="M2074 453 c3 -20 21 -28 31 -14 4 7 0 8 -11 4 -11 -4 -15 -3 -10 5 3
6 2 13 -3 16 -5 4 -8 -2 -7 -11z"/>
<path d="M2220 460 c-9 -6 -10 -10 -3 -10 6 0 15 5 18 10 8 12 4 12 -15 0z"/>
<path d="M2016 445 c4 -8 11 -15 16 -15 6 0 5 6 -2 15 -7 8 -14 15 -16 15 -2
0 -1 -7 2 -15z"/>
<path d="M2175 449 c-4 -6 -5 -12 -2 -15 2 -3 7 2 10 11 7 17 1 20 -8 4z"/>
<path d="M2126 437 c3 -10 9 -15 12 -12 3 3 0 11 -7 18 -10 9 -11 8 -5 -6z"/>
<path d="M796 427 c3 -10 9 -15 12 -12 3 3 0 11 -7 18 -10 9 -11 8 -5 -6z"/>
<path d="M2055 429 c7 -18 -22 -22 -42 -7 -20 16 -35 0 -22 -23 7 -14 14 -17
23 -10 13 11 34 10 53 -2 6 -4 19 -4 29 0 11 4 15 3 10 -5 -3 -6 -2 -13 3 -16
5 -4 12 -2 16 4 4 6 11 8 16 4 6 -3 5 3 -2 15 -10 15 -16 17 -22 8 -6 -8 -7
-4 -4 10 4 20 3 21 -15 12 -16 -8 -23 -7 -34 8 -10 13 -13 14 -9 2z m-40 -18
c3 -5 0 -13 -6 -17 -7 -4 -9 -3 -5 4 3 5 0 13 -6 15 -9 4 -10 6 -1 6 6 1 14
-3 18 -8z m75 -15 c-7 -7 -13 -7 -20 0 -6 6 -3 10 10 10 13 0 16 -4 10 -10z"/>
<path d="M2196 432 c-2 -4 4 -8 14 -8 10 0 16 4 14 8 -3 4 -9 8 -14 8 -5 0
-11 -4 -14 -8z"/>
<path d="M575 420 c-3 -5 -1 -10 4 -10 6 0 11 5 11 10 0 6 -2 10 -4 10 -3 0
-8 -4 -11 -10z"/>
<path d="M626 422 c-3 -5 1 -9 9 -9 8 0 15 4 15 9 0 4 -4 8 -9 8 -6 0 -12 -4
-15 -8z"/>
<path d="M727 419 c-9 -5 -22 -7 -29 -3 -7 4 -8 3 -4 -4 9 -16 18 -15 42 3 22
17 17 19 -9 4z"/>
<path d="M2325 420 c-3 -6 1 -7 9 -4 18 7 21 14 7 14 -6 0 -13 -4 -16 -10z"/>
<path d="M2377 423 c-9 -8 12 -33 27 -33 6 0 3 5 -7 11 -9 6 -15 14 -12 20 7
10 2 12 -8 2z"/>
<path d="M2406 418 c3 -5 10 -6 15 -3 13 9 11 12 -6 12 -8 0 -12 -4 -9 -9z"/>
<path d="M676 397 c3 -10 9 -15 12 -12 3 3 0 11 -7 18 -10 9 -11 8 -5 -6z"/>
<path d="M2290 406 c0 -2 7 -7 16 -10 8 -3 12 -2 9 4 -6 10 -25 14 -25 6z"/>
<path d="M2334 399 c-4 -7 -3 -9 4 -5 5 3 12 0 15 -6 2 -7 7 -10 11 -7 4 3 0
12 -8 18 -11 9 -16 9 -22 0z"/>
<path d="M510 396 c0 -2 8 -10 18 -17 15 -13 16 -12 3 4 -13 16 -21 21 -21 13z"/>
<path d="M553 385 c0 -8 4 -15 9 -15 4 0 8 4 8 9 0 6 -4 12 -8 15 -5 3 -9 -1
-9 -9z"/>
<path d="M654 392 c3 -5 0 -13 -6 -15 -9 -4 -10 -6 -1 -6 17 -1 25 16 12 25
-7 4 -9 3 -5 -4z"/>
<path d="M2530 380 c0 -5 5 -10 11 -10 5 0 7 5 4 10 -3 6 -8 10 -11 10 -2 0
-4 -4 -4 -10z"/>
<path d="M473 365 c0 -8 4 -12 9 -9 5 3 6 10 3 15 -9 13 -12 11 -12 -6z"/>
<path d="M580 348 c-36 -42 -37 -53 0 -17 17 17 30 35 28 39 -2 4 -14 -5 -28
-22z"/>
<path d="M2452 371 c-11 -6 -10 -10 4 -15 9 -4 22 -2 28 4 8 8 6 9 -8 4 -13
-5 -17 -4 -12 4 8 14 6 15 -12 3z"/>
<path d="M819 358 c-3 -19 -5 -24 -13 -37 -7 -11 -10 -11 -17 0 -7 12 -9 12
-9 0 0 -9 -7 -11 -22 -8 -23 6 -23 6 -3 -9 11 -9 19 -20 18 -25 -2 -5 2 -9 8
-9 5 0 7 -5 3 -11 -4 -7 1 -7 15 1 18 9 20 14 10 26 -13 16 3 44 27 44 8 0 14
5 14 11 0 5 -6 7 -12 3 -10 -6 -10 -5 -1 7 10 13 10 16 -2 16 -8 0 -16 -4 -16
-9z"/>
<path d="M531 353 c-1 -17 16 -25 25 -12 4 7 3 9 -4 5 -5 -3 -13 0 -15 6 -4 9
-6 10 -6 1z"/>
<path d="M375 340 c3 -5 8 -10 11 -10 2 0 4 5 4 10 0 6 -5 10 -11 10 -5 0 -7
-4 -4 -10z"/>
<path d="M511 345 c1 -19 18 -51 18 -35 0 8 -4 22 -9 30 -5 8 -9 11 -9 5z"/>
<path d="M2176 334 c-4 -11 13 -24 39 -29 6 -1 12 -3 15 -4 18 -8 50 -9 55 -2
8 14 -22 30 -62 33 -7 1 -13 4 -13 8 0 12 -29 7 -34 -6z m65 -21 c13 -16 12
-17 -3 -4 -17 13 -22 21 -14 21 2 0 10 -8 17 -17z"/>
<path d="M445 320 c-3 -6 1 -7 9 -4 18 7 21 14 7 14 -6 0 -13 -4 -16 -10z"/>
<path d="M2472 316 c7 -8 15 -12 17 -11 5 6 -10 25 -20 25 -5 0 -4 -6 3 -14z"/>
<path d="M2520 310 c6 -11 12 -20 14 -20 2 0 2 9 -1 20 -3 11 -9 20 -15 20 -5
0 -4 -9 2 -20z"/>
<path d="M2590 321 c0 -6 4 -13 10 -16 6 -3 7 1 4 9 -7 18 -14 21 -14 7z"/>
<path d="M2659 328 c-5 -18 -6 -38 -1 -34 7 8 12 36 6 36 -2 0 -4 -1 -5 -2z"/>
<path d="M472 307 c-8 -10 -6 -13 8 -14 11 -1 22 2 25 8 4 5 -2 6 -11 2 -12
-4 -15 -3 -10 5 10 16 1 15 -12 -1z"/>
<path d="M350 300 c0 -5 5 -10 11 -10 5 0 7 5 4 10 -3 6 -8 10 -11 10 -2 0 -4
-4 -4 -10z"/>
<path d="M566 293 c-6 -14 -5 -15 5 -6 7 7 10 15 7 18 -3 3 -9 -2 -12 -12z"/>
<path d="M2443 296 c-10 -11 -9 -15 4 -20 9 -4 21 -2 27 4 8 8 5 9 -9 4 -18
-7 -18 -6 -6 9 16 20 1 22 -16 3z"/>
<path d="M530 280 c0 -5 5 -10 10 -10 6 0 10 5 10 10 0 6 -4 10 -10 10 -5 0
-10 -4 -10 -10z"/>
<path d="M753 270 c1 -21 10 -18 13 5 1 8 -2 15 -6 15 -5 0 -8 -9 -7 -20z"/>
<path d="M2490 286 c0 -2 7 -7 16 -10 8 -3 12 -2 9 4 -6 10 -25 14 -25 6z"/>
<path d="M2540 280 c-9 -6 -10 -10 -3 -10 6 0 15 5 18 10 8 12 4 12 -15 0z"/>
<path d="M2593 275 c0 -8 4 -12 9 -9 5 3 6 10 3 15 -9 13 -12 11 -12 -6z"/>
<path d="M507 255 c3 -8 9 -12 14 -9 12 7 11 11 -5 17 -10 4 -13 1 -9 -8z"/>
<path d="M2420 260 c0 -6 5 -8 10 -5 7 4 9 -3 6 -19 -3 -14 -1 -28 3 -30 4 -3
7 9 7 26 -1 28 -26 56 -26 28z"/>
<path d="M2470 250 c-6 -11 -9 -20 -8 -20 2 0 11 9 21 20 9 11 13 20 7 20 -5
0 -14 -9 -20 -20z"/>
<path d="M450 256 c0 -2 8 -10 18 -17 15 -13 16 -12 3 4 -13 16 -21 21 -21 13z"/>
<path d="M901 237 c-6 -8 -8 -17 -4 -20 11 -12 19 -7 20 13 2 24 -1 25 -16 7z"/>
<path d="M506 198 c3 -5 10 -6 15 -3 13 9 11 12 -6 12 -8 0 -12 -4 -9 -9z"/>
<path d="M550 201 c0 -6 4 -13 10 -16 6 -3 7 1 4 9 -7 18 -14 21 -14 7z"/>
<path d="M2037 195 c-10 -23 -9 -25 8 -25 8 0 15 -5 15 -12 0 -6 3 -9 6 -6 3
4 -1 18 -9 33 -12 23 -15 25 -20 10z"/>
<path d="M2350 200 c0 -5 5 -10 10 -10 6 0 10 5 10 10 0 6 -4 10 -10 10 -5 0
-10 -4 -10 -10z"/>
<path d="M675 191 c-3 -5 -2 -12 3 -15 5 -3 9 1 9 9 0 17 -3 19 -12 6z"/>
<path d="M840 181 c-7 -14 -7 -22 0 -26 6 -4 10 -3 9 2 -4 21 2 34 13 27 7 -4
8 -3 4 4 -10 16 -14 15 -26 -7z"/>
<path d="M585 180 c-3 -6 1 -7 9 -4 18 7 21 14 7 14 -6 0 -13 -4 -16 -10z"/>
<path d="M700 186 c0 -2 8 -10 18 -17 15 -13 16 -12 3 4 -13 16 -21 21 -21 13z"/>
<path d="M779 188 c-8 -27 -5 -36 9 -30 10 4 12 7 4 10 -7 2 -10 8 -6 13 3 5
3 9 0 9 -3 0 -6 -1 -7 -2z"/>
<path d="M1234 168 c-3 -5 -8 -7 -12 -4 -4 2 -16 -6 -27 -17 l-20 -20 23 12
c16 9 27 9 35 2 16 -12 34 -1 34 20 0 16 -24 22 -33 7z m20 -19 c-3 -5 -10 -7
-15 -3 -5 3 -7 10 -3 15 3 5 10 7 15 3 5 -3 7 -10 3 -15z"/>
<path d="M1369 166 c-14 -9 -14 -13 -3 -24 11 -10 15 -8 24 7 12 24 1 34 -21
17z"/>
<path d="M2209 163 c-13 -16 -12 -17 4 -4 16 13 21 21 13 21 -2 0 -10 -8 -17
-17z"/>
<path d="M860 166 c0 -2 11 -6 25 -8 13 -3 22 -1 19 3 -5 9 -44 13 -44 5z"/>
<path d="M1587 157 c-3 -8 -1 -20 3 -27 9 -15 48 -21 55 -9 3 4 -6 6 -20 4
-20 -2 -24 1 -20 16 7 20 -10 35 -18 16z"/>
<path d="M1055 140 c-3 -5 -1 -10 4 -10 6 0 11 5 11 10 0 6 -2 10 -4 10 -3 0
-8 -4 -11 -10z"/>
<path d="M1916 142 c-2 -4 4 -8 14 -8 10 0 16 4 14 8 -3 4 -9 8 -14 8 -5 0
-11 -4 -14 -8z"/>
<path d="M1351 124 c0 -11 3 -14 6 -6 3 7 2 16 -1 19 -3 4 -6 -2 -5 -13z"/>
<path d="M1206 118 c3 -4 9 -8 15 -8 5 0 9 4 9 8 0 5 -7 9 -15 9 -8 0 -12 -4
-9 -9z"/>
</g>
</svg>
